<svg xmlns="http://www.w3.org/2000/svg" width="25.433" height="25.433" viewBox="0 0 25.433 25.433">
    <defs>
        <style>
            .cls-1{fill:#563d7c}
        </style>
    </defs>
    <path id="bootstrap-brands" d="M16.594 47.892a2.259 2.259 0 0 1-2.494 2.352H9.508v-4.638H14.1c2.417 0 2.494 1.811 2.494 2.286zm-2.847-4.152a2.04 2.04 0 0 0 2.182-2.061c0-.881-.2-2.036-2.182-2.036H9.508v4.1zm11.686-7.5v16.954a4.251 4.251 0 0 1-4.239 4.239H4.239A4.251 4.251 0 0 1 0 53.194V36.239A4.251 4.251 0 0 1 4.239 32h16.955a4.251 4.251 0 0 1 4.239 4.239zm-6.242 11.988a3.556 3.556 0 0 0-2.785-3.828v-.041a3.252 3.252 0 0 0 2.12-3.159c0-.4.114-3.678-4.405-3.678h-7.21v14.841c7.28 0 7.94.1 9.288-.324a3.816 3.816 0 0 0 2.992-3.811z" class="cls-1" transform="translate(0 -32)"/>
</svg>
