<svg xmlns="http://www.w3.org/2000/svg" width="29.648" height="30.472" viewBox="0 0 29.648 30.472">
    <defs>
        <style>
            .cls-1{fill:#ec5252;stroke:#707070}
        </style>
    </defs>
    <path id="user-solid" d="M14.324 14.736c4.521 0 8.185-3.3 8.185-7.368S18.845 0 14.324 0 6.139 3.3 6.139 7.368s3.661 7.368 8.185 7.368zm5.73 1.842h-1.068a12.259 12.259 0 0 1-9.324 0H8.595C3.85 16.578 0 20.043 0 24.314v2.395a2.929 2.929 0 0 0 3.069 2.763h22.51a2.929 2.929 0 0 0 3.069-2.763v-2.395c0-4.271-3.848-7.736-8.594-7.736z" class="cls-1" transform="translate(.5 .5)"/>
</svg>
